<svg id="icon" xmlns="http://www.w3.org/2000/svg" width="15.688" height="14" viewBox="0 0 15.688 14">
  <metadata><?xpacket begin="﻿" id="W5M0MpCehiHzreSzNTczkc9d"?>
<x:xmpmeta xmlns:x="adobe:ns:meta/" x:xmptk="Adobe XMP Core 5.6-c140 79.160451, 2017/05/06-01:08:21        ">
   <rdf:RDF xmlns:rdf="http://www.w3.org/1999/02/22-rdf-syntax-ns#">
      <rdf:Description rdf:about=""/>
   </rdf:RDF>
</x:xmpmeta>
                                                                                                    
                                                                                                    
                                                                                                    
                                                                                                    
                                                                                                    
                                                                                                    
                                                                                                    
                                                                                                    
                                                                                                    
                                                                                                    
                                                                                                    
                                                                                                    
                                                                                                    
                                                                                                    
                                                                                                    
                                                                                                    
                                                                                                    
                                                                                                    
                                                                                                    
                                                                                                    
                           
<?xpacket end="w"?></metadata>
<defs>
    <style>
      .cls-1 {
        fill: #9b9b9b;
      }

      .cls-1, .cls-2 {
        fill-rule: evenodd;
      }

      .cls-2 {
        opacity: 0.58;
      }
    </style>
  </defs>
  <path id="Rounded_Rectangle_7" data-name="Rounded Rectangle 7" class="cls-1" d="M380.7,432h-1.962v2h-7.849a0.991,0.991,0,0,1-.981-1v-6a1,1,0,0,0,1,1h10.755a1,1,0,0,0,1-1v3H380.7v2Zm-3.924-3h-0.981v1h0.981v-1Zm4.887-2H370.906a1,1,0,0,1-1-1v-2a0.991,0.991,0,0,1,.981-1H381.68a0.991,0.991,0,0,1,.981,1v2A1,1,0,0,1,381.661,427Zm-4.887-2h-0.981v1h0.981v-1Z" transform="translate(-369.906 -423)"/>
  <path id="Rounded_Rectangle_7_copy" data-name="Rounded Rectangle 7 copy" class="cls-2" d="M375.793,426h0.981v4h-0.981v-4Z" transform="translate(-369.906 -423)"/>
  <path class="cls-1" d="M385.6,435h-1.962v2H381.68v-2h-1.963v-2h1.963v-2h1.962v2H385.6v2Z" transform="translate(-369.906 -423)"/>
</svg>
