<svg id="c4d" xmlns="http://www.w3.org/2000/svg" width="173" height="97" viewBox="0 0 173 97">
  <metadata><?xpacket begin="﻿" id="W5M0MpCehiHzreSzNTczkc9d"?>
<x:xmpmeta xmlns:x="adobe:ns:meta/" x:xmptk="Adobe XMP Core 5.6-c138 79.159824, 2016/09/14-01:09:01        ">
   <rdf:RDF xmlns:rdf="http://www.w3.org/1999/02/22-rdf-syntax-ns#">
      <rdf:Description rdf:about=""/>
   </rdf:RDF>
</x:xmpmeta>
                                                                                                    
                                                                                                    
                                                                                                    
                                                                                                    
                                                                                                    
                                                                                                    
                                                                                                    
                                                                                                    
                                                                                                    
                                                                                                    
                                                                                                    
                                                                                                    
                                                                                                    
                                                                                                    
                                                                                                    
                                                                                                    
                                                                                                    
                                                                                                    
                                                                                                    
                                                                                                    
                           
<?xpacket end="w"?></metadata>
<defs>
    <style>
      .cls-1 {
        fill: none;
        stroke: #000;
        stroke-width: 1px;
        opacity: 0;
      }

      .cls-2, .cls-4 {
        fill: #343259;
      }

      .cls-2, .cls-3 {
        fill-rule: evenodd;
      }

      .cls-3 {
        fill: #8f94f9;
      }

      .cls-4 {
        font-size: 10.667px;
        text-anchor: middle;
        font-family: Tahoma;
        font-weight: 700;
        text-transform: uppercase;
      }
    </style>
  </defs>
  <rect id="SVG_Border_copy_2" data-name="SVG Border copy 2" class="cls-1" width="173" height="97"/>
  <path id="Rectangle_14_copy" data-name="Rectangle 14 copy" class="cls-2" d="M99,15H58V83h56V30c0-.132-4.048-3.075-8-7C102.217,19.243,99.113,15,99,15Z"/>
  <path id="Shape_2_copy" data-name="Shape 2 copy" class="cls-3" d="M98.673,15L114,30.184H98.673V15Z"/>
  <path id="Rectangle_15_copy" data-name="Rectangle 15 copy" class="cls-3" d="M50,18.01H88V32H50V18.01Z"/>
  <path id="Logo" class="cls-3" d="M81.015,64.068c-4.942-4.94-3.541-12.1-2.8-12.843,1.4-1.4,6.342-3.211,10.954-3.869A8.679,8.679,0,0,0,92.792,46.2a4.024,4.024,0,0,0,1.565-1.729,15.783,15.783,0,0,1,3.624,2.634L97.9,47.027a15.776,15.776,0,0,1,2.636,3.622,4.024,4.024,0,0,0-1.73,1.564,8.671,8.671,0,0,0-1.153,3.622c-0.659,4.61-2.471,9.55-3.871,10.949-0.741.741-7.907,2.141-12.848-2.8m-6.671,6.751c-3.13-3.128-10.377-14.16.577-25.109,4.555-4.553,11.393-5.189,15.484-4.281,1.483,0.329,3.459.741,3.459,2.305,0,2.305-4.2,2.881-4.2,2.881s-6.836,1.07-10.954,3.54a13.016,13.016,0,0,0-6.671,11.279c0.577-2.635.824-5.351,5.024-9.3A13.043,13.043,0,0,0,92.957,68.02c-3.953,4.2-6.671,4.446-9.307,5.022a13.023,13.023,0,0,0,11.283-6.668c2.471-4.116,3.541-10.949,3.541-10.949s0.576-4.2,2.883-4.2c1.564,0,1.976,1.976,2.306,3.458,0.909,4.089.272,10.924-4.283,15.477C88.427,81.11,77.391,73.865,74.261,70.737Z"/>
  <text id="c4d_copy" data-name="c4d copy" class="cls-4" transform="translate(68.744 29.389) scale(1.074 1.074)">c4d</text>
</svg>
