<svg id="Eps_copy" data-name="Eps copy" xmlns="http://www.w3.org/2000/svg" width="173" height="97" viewBox="0 0 173 97">
  <metadata><?xpacket begin="﻿" id="W5M0MpCehiHzreSzNTczkc9d"?>
<x:xmpmeta xmlns:x="adobe:ns:meta/" x:xmptk="Adobe XMP Core 5.6-c138 79.159824, 2016/09/14-01:09:01        ">
   <rdf:RDF xmlns:rdf="http://www.w3.org/1999/02/22-rdf-syntax-ns#">
      <rdf:Description rdf:about=""/>
   </rdf:RDF>
</x:xmpmeta>
                                                                                                    
                                                                                                    
                                                                                                    
                                                                                                    
                                                                                                    
                                                                                                    
                                                                                                    
                                                                                                    
                                                                                                    
                                                                                                    
                                                                                                    
                                                                                                    
                                                                                                    
                                                                                                    
                                                                                                    
                                                                                                    
                                                                                                    
                                                                                                    
                                                                                                    
                                                                                                    
                           
<?xpacket end="w"?></metadata>
<defs>
    <style>
      .cls-1 {
        fill: none;
        stroke: #000;
        stroke-width: 1px;
        opacity: 0;
      }

      .cls-2, .cls-5 {
        fill: #363636;
      }

      .cls-2, .cls-3, .cls-6 {
        fill-rule: evenodd;
      }

      .cls-3 {
        fill: #5c5959;
      }

      .cls-4 {
        fill: #e8912a;
      }

      .cls-5 {
        font-size: 10.667px;
        text-anchor: middle;
        font-family: Tahoma;
        font-weight: 700;
        text-transform: uppercase;
      }

      .cls-6, .cls-7 {
        fill: #9e9e9e;
      }
    </style>
  </defs>
  <rect id="SVG_Border" data-name="SVG Border" class="cls-1" width="173" height="97"/>
  <path class="cls-2" d="M99,15H58V83h56V30c0-.132-4.047-3.075-8-7C102.217,19.243,99.113,15,99,15Z"/>
  <path class="cls-3" d="M98.674,15L114,30.184H98.674V15Z"/>
  <rect class="cls-4" x="50" y="18" width="38" height="14"/>
  <text id="eps" class="cls-5" transform="translate(69.395 29.389) scale(1.074)">eps</text>
  <g>
    <path class="cls-6" d="M86.5,44A14.5,14.5,0,1,1,72,58.5,14.5,14.5,0,0,1,86.5,44Zm0,1A13.5,13.5,0,1,1,73,58.5,13.5,13.5,0,0,1,86.5,45Z"/>
    <path class="cls-6" d="M71,57h3v3H71V57ZM85,43h3v3H85V43ZM99,57h3v3H99V57ZM85,71h3v3H85V71Z"/>
    <rect class="cls-7" x="71" y="44" width="31" height="1"/>
    <path class="cls-6" d="M102.5,43a1.5,1.5,0,1,1-1.5,1.5A1.5,1.5,0,0,1,102.5,43Zm-32,0A1.5,1.5,0,1,1,69,44.5,1.5,1.5,0,0,1,70.5,43Z"/>
  </g>
</svg>
