<svg id="mp4" xmlns="http://www.w3.org/2000/svg" width="173" height="97" viewBox="0 0 173 97">
  <metadata><?xpacket begin="﻿" id="W5M0MpCehiHzreSzNTczkc9d"?>
<x:xmpmeta xmlns:x="adobe:ns:meta/" x:xmptk="Adobe XMP Core 5.6-c138 79.159824, 2016/09/14-01:09:01        ">
   <rdf:RDF xmlns:rdf="http://www.w3.org/1999/02/22-rdf-syntax-ns#">
      <rdf:Description rdf:about=""/>
   </rdf:RDF>
</x:xmpmeta>
                                                                                                    
                                                                                                    
                                                                                                    
                                                                                                    
                                                                                                    
                                                                                                    
                                                                                                    
                                                                                                    
                                                                                                    
                                                                                                    
                                                                                                    
                                                                                                    
                                                                                                    
                                                                                                    
                                                                                                    
                                                                                                    
                                                                                                    
                                                                                                    
                                                                                                    
                                                                                                    
                           
<?xpacket end="w"?></metadata>
<defs>
    <style>
      .cls-1 {
        fill: none;
        stroke: #000;
        stroke-width: 1px;
        opacity: 0;
      }

      .cls-2 {
        fill: #363636;
      }

      .cls-2, .cls-3, .cls-6 {
        fill-rule: evenodd;
      }

      .cls-3 {
        fill: #5c5959;
      }

      .cls-4 {
        fill: #483c7d;
      }

      .cls-5 {
        font-size: 10.667px;
        fill: #fff;
        text-anchor: middle;
        font-family: Tahoma;
        font-weight: 700;
      }

      .cls-6 {
        fill: #868686;
      }
    </style>
  </defs>
  <rect id="SVG_Border" data-name="SVG Border" class="cls-1" width="173" height="97"/>
  <path class="cls-2" d="M99,15H58V83h56V30c0-.132-4.048-3.075-8-7C102.217,19.243,99.113,15,99,15Z"/>
  <path class="cls-3" d="M98.674,15L114,30.184H98.674V15Z"/>
  <rect class="cls-4" x="50" y="18" width="38" height="14"/>
  <text id="MP4-2" data-name="MP4" class="cls-5" transform="translate(68.991 28.747)">MP4</text>
  <g>
    <path class="cls-6" d="M70,44h32v5H70V44Zm1,1h2v3H71V45Zm4,0h2v3H75V45Zm4,0h2v3H79V45Zm4,0h2v3H83V45Zm4,0h2v3H87V45Zm4,0h2v3H91V45Zm4,0h2v3H95V45Zm4,0h2v3H99V45Z"/>
    <path id="Rectangle_19_copy_2" data-name="Rectangle 19 copy 2" class="cls-6" d="M70,49h1V64H70V49Zm31,0h1V64h-1V49Z"/>
    <path id="Rectangle_19_copy" data-name="Rectangle 19 copy" class="cls-6" d="M70,64h32v5H70V64Zm1,1h2v3H71V65Zm13-4,7-4.5L84,52v9Zm-9,4h2v3H75V65Zm4,0h2v3H79V65Zm4,0h2v3H83V65Zm0,0h2v3H83V65Zm4,0h2v3H87V65Zm4,0h2v3H91V65Zm4,0h2v3H95V65Zm4,0h2v3H99V65Z"/>
  </g>
</svg>
