<svg xmlns="http://www.w3.org/2000/svg" width="4" height="7" viewBox="0 0 4 7">
  <defs>
    <style>
      .cls-1 {
        fill: #9e9e9e;
        fill-rule: evenodd;
      }
    </style>
  </defs>
  <path id="_icon_копия_copy" data-name="&gt; icon копия copy" class="cls-1" d="M-45.307-188.007l2.8,2.662,2.8-2.662,0.7,0.665-3.5,3.328-3.5-3.328Zm0,152,2.8,2.662,2.8-2.662,0.7,0.666-3.5,3.328-3.5-3.328Zm23,19,2.8,2.662,2.8-2.662,0.7,0.666-3.5,3.328-3.5-3.328Zm22.3,23.314L2.655,3.5-0.007.7,0.658,0,3.986,3.5l-3.328,3.5Zm0,19,2.662-2.8-2.662-2.8L0.658,19l3.328,3.5-3.328,3.5Zm-21,191,2.662-2.8-2.662-2.8,0.666-.7,3.328,3.5-3.328,3.505Zm44-153,2.662-2.8-2.662-2.8,0.666-.7,3.328,3.5-3.328,3.5ZM0.693,39.993l2.8,2.662,2.8-2.662L7,40.658,3.5,43.986l-3.5-3.328Zm-0.7,43.314,2.662-2.8-2.662-2.8L0.658,77l3.328,3.5-3.328,3.5Zm0,19,2.662-2.8-2.662-2.8L0.658,96l3.328,3.5-3.328,3.5Zm0,19,2.662-2.8-2.662-2.8,0.666-.7,3.328,3.5-3.328,3.5Zm0,19,2.662-2.8-2.662-2.8,0.666-.7,3.328,3.5-3.328,3.505Zm0,19,2.662-2.8-2.662-2.8,0.666-.7,3.328,3.5-3.328,3.505Zm0,19,2.662-2.8-2.662-2.8,0.666-.7,3.328,3.5-3.328,3.505Zm0,19,2.662-2.8-2.662-2.8,0.666-.7,3.328,3.5-3.328,3.505Z"/>
</svg>
