<svg xmlns="http://www.w3.org/2000/svg" width="7" height="4" viewBox="0 0 7 4">
  <defs>
    <style>
      .cls-1 {
        fill: #9e9e9e;
        fill-rule: evenodd;
      }
    </style>
  </defs>
  <path id="_icon_копия_copy" data-name="&gt; icon копия copy" class="cls-1" d="M0.693-152.007l2.8,2.662,2.8-2.662L7-151.342l-3.5,3.328-3.5-3.328Zm0,152L3.5,2.655,6.3-.007,7,0.658,3.5,3.986-0.008.658Zm23,19,2.8,2.662,2.8-2.662L30,19.658l-3.5,3.328-3.5-3.328Zm22.3,23.314,2.662-2.8-2.662-2.8,0.666-.7,3.328,3.5-3.328,3.5Zm0,19,2.662-2.8-2.662-2.8,0.666-.7,3.328,3.5-3.328,3.5Zm-21,191,2.662-2.8-2.662-2.8,0.666-.7,3.328,3.5-3.328,3.505Zm44-153,2.662-2.8-2.662-2.8,0.665-.7,3.328,3.5-3.328,3.5Zm-22.3-23.314,2.8,2.662,2.8-2.662L53,76.658l-3.5,3.328-3.5-3.328Zm-0.7,43.314,2.662-2.8-2.662-2.8,0.666-.7,3.328,3.5-3.328,3.5Zm0,19,2.662-2.8-2.662-2.8,0.666-.7,3.328,3.5-3.328,3.505Zm0,19,2.662-2.8-2.662-2.8,0.666-.7,3.328,3.5-3.328,3.505Zm0,19,2.662-2.8-2.662-2.8,0.666-.7,3.328,3.5-3.328,3.505Zm0,19,2.662-2.8-2.662-2.8,0.666-.7,3.328,3.5-3.328,3.505Zm0,19,2.662-2.8-2.662-2.8,0.666-.7,3.328,3.5-3.328,3.505Zm0,19,2.662-2.8-2.662-2.8,0.666-.7,3.328,3.5-3.328,3.505Z"/>
</svg>
