<svg id="Collect" xmlns="http://www.w3.org/2000/svg" width="12" height="13" viewBox="0 0 12 13">
  <metadata><?xpacket begin="﻿" id="W5M0MpCehiHzreSzNTczkc9d"?>
<x:xmpmeta xmlns:x="adobe:ns:meta/" x:xmptk="Adobe XMP Core 5.6-c140 79.160451, 2017/05/06-01:08:21        ">
   <rdf:RDF xmlns:rdf="http://www.w3.org/1999/02/22-rdf-syntax-ns#">
      <rdf:Description rdf:about=""/>
   </rdf:RDF>
</x:xmpmeta>
                                                                                                    
                                                                                                    
                                                                                                    
                                                                                                    
                                                                                                    
                                                                                                    
                                                                                                    
                                                                                                    
                                                                                                    
                                                                                                    
                                                                                                    
                                                                                                    
                                                                                                    
                                                                                                    
                                                                                                    
                                                                                                    
                                                                                                    
                                                                                                    
                                                                                                    
                                                                                                    
                           
<?xpacket end="w"?></metadata>
<defs>
    <style>
      .cls-1 {
        fill: #9f9f9f;
        fill-rule: evenodd;
      }
    </style>
  </defs>
  <path class="cls-1" d="M309,72h10a1,1,0,0,1,1,1v2a1,1,0,0,1-1,1H309a1,1,0,0,1-1-1V73A1,1,0,0,1,309,72Zm4.5-2h1a1.5,1.5,0,0,1,1.5,1.5v1a1.5,1.5,0,0,1-1.5,1.5h-1a1.5,1.5,0,0,1-1.5-1.5v-1A1.5,1.5,0,0,1,313.5,70ZM309,63h10a1,1,0,0,1,1,1v6a1,1,0,0,1-1,1H309a1,1,0,0,1-1-1V64A1,1,0,0,1,309,63Zm4.5,2h1a1.5,1.5,0,0,1,1.5,1.5v1a1.5,1.5,0,0,1-1.5,1.5h-1a1.5,1.5,0,0,1-1.5-1.5v-1A1.5,1.5,0,0,1,313.5,65ZM310,64h8a1,1,0,0,1,1,1v1a1,1,0,0,1-1,1h-8a1,1,0,0,1-1-1V65A1,1,0,0,1,310,64Zm-1,0h10v3H309V64Z" transform="translate(-308 -63)"/>
</svg>
