<svg id="AEP" xmlns="http://www.w3.org/2000/svg" width="173" height="97" viewBox="0 0 173 97">
  <defs>
    <style>
      .cls-1 {
        fill: #3e1b36;
      }

      .cls-1, .cls-2, .cls-4, .cls-5 {
        fill-rule: evenodd;
      }

      .cls-2 {
        fill: #d4a5ff;
      }

      .cls-3 {
        fill: #ca8df6;
      }

      .cls-4 {
        fill: #2b0323;
      }

      .cls-5 {
        fill: #5e2651;
      }
    </style>
  </defs>
  <g>
    <path id="Rectangle_14_copy" data-name="Rectangle 14 copy" class="cls-1" d="M50,1H9V69H65V16c0-.132-4.047-3.075-8-7C53.217,5.243,50.113,1,50,1Z" transform="translate(53.5 13.5)"/>
    <path id="Ae" class="cls-2" d="M27.682,30.785L19.218,53.661h3.039l2.353-6.34h8.17l2.353,6.34h3.693L30.362,30.785h-2.68Zm0.163,7.32a16.857,16.857,0,0,0,.784-2.876H28.76a13.036,13.036,0,0,0,.686,2.712L32,44.772h-6.6Zm25.948,8.3V45.687a19.417,19.417,0,0,0-.294-3.758,5.25,5.25,0,0,0-1.373-2.582,6.15,6.15,0,0,0-4.673-1.9,6.238,6.238,0,0,0-4.837,2.092,8.7,8.7,0,0,0-1.83,5.915q0,4.118,1.9,6.242a7.078,7.078,0,0,0,5.588,2.288A10.474,10.474,0,0,0,52,53.334a19.835,19.835,0,0,0,1.928-.915l-0.915-1.863a15.436,15.436,0,0,1-1.83.752,8.647,8.647,0,0,1-2.484.392A4.659,4.659,0,0,1,45.1,50.393a5.021,5.021,0,0,1-1.111-3.562V46.406h9.8Zm-9.8-2.451a4.755,4.755,0,0,1,1.046-3.366,3.02,3.02,0,0,1,2.386-1.046,3.122,3.122,0,0,1,2.255.784,2.9,2.9,0,0,1,.735,1.095,3.947,3.947,0,0,1,.278,1.062q0.032,0.425.033,1.177v0.654H43.989V43.955Z" transform="translate(53.5 13.5)"/>
  </g>
  <rect class="cls-3" x="54.5" y="17.5" width="38" height="14"/>
  <path id="AEP-2" data-name="AEP" class="cls-4" d="M10.655,15.389l0.52-1.7h2.618l0.52,1.7h2.154l-2.814-8.33H11.371l-2.814,8.33h2.1Zm0.979-3.211,0.85-2.747,0.85,2.747h-1.7ZM24.2,15.389V13.8H20.653V11.7h3.273V10.108H20.653V8.648H24.2V7.059H18.572v8.33H24.2ZM31.7,8.443a2.1,2.1,0,0,0-.727-0.836,3,3,0,0,0-.948-0.417,5.161,5.161,0,0,0-1.245-.131H25.543v8.33h2.092V12.664h1.1a4.1,4.1,0,0,0,.808-0.073,3.535,3.535,0,0,0,.669-0.2,2.784,2.784,0,0,0,.562-0.313,3.617,3.617,0,0,0,.467-0.4,2.332,2.332,0,0,0,.531-0.878,3.318,3.318,0,0,0,.185-1.108A2.793,2.793,0,0,0,31.7,8.443Zm-1.966,1.9a1.1,1.1,0,0,1-.288.431,0.924,0.924,0,0,1-.288.182,1.532,1.532,0,0,1-.355.109,3.137,3.137,0,0,1-.459.039q-0.263.006-.559,0.006H27.635V8.614h0.3q0.464,0,.736.02a1.749,1.749,0,0,1,.568.148,0.884,0.884,0,0,1,.4.35,1.078,1.078,0,0,1,.168.607A1.946,1.946,0,0,1,29.73,10.343Z" transform="translate(53.5 13.5)"/>
  <path class="cls-5" d="M49.674,1L65,16.184H49.674V1Z" transform="translate(53.5 13.5)"/>
</svg>
