<svg id="expr" xmlns="http://www.w3.org/2000/svg" width="173" height="97" viewBox="0 0 173 97">
  <metadata><?xpacket begin="﻿" id="W5M0MpCehiHzreSzNTczkc9d"?>
<x:xmpmeta xmlns:x="adobe:ns:meta/" x:xmptk="Adobe XMP Core 5.6-c138 79.159824, 2016/09/14-01:09:01        ">
   <rdf:RDF xmlns:rdf="http://www.w3.org/1999/02/22-rdf-syntax-ns#">
      <rdf:Description rdf:about=""/>
   </rdf:RDF>
</x:xmpmeta>
                                                                                                    
                                                                                                    
                                                                                                    
                                                                                                    
                                                                                                    
                                                                                                    
                                                                                                    
                                                                                                    
                                                                                                    
                                                                                                    
                                                                                                    
                                                                                                    
                                                                                                    
                                                                                                    
                                                                                                    
                                                                                                    
                                                                                                    
                                                                                                    
                                                                                                    
                                                                                                    
                           
<?xpacket end="w"?></metadata>
<defs>
    <style>
      .cls-1 {
        fill: #3d5c67;
      }

      .cls-1, .cls-2, .cls-3 {
        fill-rule: evenodd;
      }

      .cls-2 {
        fill: #1d3741;
      }

      .cls-3 {
        fill: #bee8f8;
      }

      .cls-4 {
        fill: none;
        stroke: #000;
        stroke-width: 1px;
        opacity: 0;
      }
    </style>
  </defs>
  <path id="Rectangle_14_copy" data-name="Rectangle 14 copy" class="cls-1" d="M99,15H58V83h56V30c0-.132-4.048-3.075-8-7C102.217,19.243,99.112,15,99,15Z"/>
  <path id="Shape_2_copy" data-name="Shape 2 copy" class="cls-2" d="M98.673,15L114,30.184H98.673V15Z"/>
  <path id="Rectangle_15_copy" data-name="Rectangle 15 copy" class="cls-2" d="M50,18.01H94V32H50V18.01Z"/>
  <path id="expr_копия" data-name="expr копия" class="cls-3" d="M61.1,29.389V27.8H57.552V25.7h3.273V24.108H57.552v-1.46H61.1V21.059H55.471v8.33H61.1Zm7.09-4.279,2.612-4.05H68.485l-1.538,2.512-1.5-2.512H63.025l2.6,4.134-2.7,4.2h2.316l1.633-2.657,1.6,2.657H70.9Zm10.83-2.666a2.1,2.1,0,0,0-.727-0.836,3,3,0,0,0-.948-0.417,5.162,5.162,0,0,0-1.245-.131H72.871v8.33h2.092V26.664h1.1a4.105,4.105,0,0,0,.808-0.073,3.545,3.545,0,0,0,.669-0.2,2.786,2.786,0,0,0,.562-0.313,3.611,3.611,0,0,0,.467-0.4A2.332,2.332,0,0,0,79.1,24.8a3.318,3.318,0,0,0,.185-1.108A2.793,2.793,0,0,0,79.025,22.443Zm-1.966,1.9a1.1,1.1,0,0,1-.288.431,0.922,0.922,0,0,1-.288.182,1.537,1.537,0,0,1-.355.109,3.14,3.14,0,0,1-.459.039q-0.263.006-.559,0.006H74.963v-2.5h0.3q0.464,0,.736.02a1.747,1.747,0,0,1,.568.148,0.884,0.884,0,0,1,.4.35,1.078,1.078,0,0,1,.168.607A1.949,1.949,0,0,1,77.058,24.343Zm9.263,1.5a3.032,3.032,0,0,0,1.152-.948,2.588,2.588,0,0,0,.431-1.552,2.145,2.145,0,0,0-.263-1.116,2.179,2.179,0,0,0-.71-0.724,2.574,2.574,0,0,0-.951-0.361,7.368,7.368,0,0,0-1.208-.087H81.421v8.33H83.5V26.334h0.75l2.322,3.054h2.551ZM85.658,24.18a0.979,0.979,0,0,1-.3.375,1.1,1.1,0,0,1-.517.227,4.405,4.405,0,0,1-.741.053H83.5V22.592h0.7q0.358,0,.6.022a1.445,1.445,0,0,1,.436.106,0.793,0.793,0,0,1,.4.35,1.136,1.136,0,0,1,.12.54A1.409,1.409,0,0,1,85.658,24.18Z"/>
  <path id="Прямоугольник_1" data-name="Прямоугольник 1" class="cls-3" d="M74,45H98v5H74V45Zm0,10H92v5H74V55Zm0,10H98v5H74V65Z"/>
  <rect id="SVG_Border_copy_3" data-name="SVG Border copy 3" class="cls-4" width="173" height="97"/>
</svg>
