<?xml version="1.0" encoding="utf-8"?>
<!-- Generator: Adobe Illustrator 24.1.0, SVG Export Plug-In . SVG Version: 6.00 Build 0)  -->
<svg version="1.1" id="folder" xmlns="http://www.w3.org/2000/svg" xmlns:xlink="http://www.w3.org/1999/xlink" x="0px" y="0px"
	 viewBox="0 0 173 97" style="enable-background:new 0 0 173 97;" xml:space="preserve">
<style type="text/css">
	.st0{fill:none;stroke:#000000;stroke-opacity:0;}
	.st1{fill-rule:evenodd;clip-rule:evenodd;fill:#353535;}
	.st2{fill:#4C4C4C;}
</style>
<polyline id="SVG_Border_1_" class="st0" points="173,97 0,97 0,0 173,0 "/>
<path id="Rounded_Rectangle_4_2_" class="st1" d="M41.1,19.7c0-2.1,1.7-3.9,3.7-3.9l0,0h27.1c2.1,0,3.7,1.7,3.7,3.9l0,0v1.1
	c0,2,0.8,4.4,4,4.4h47.2c2.8-0.1,5.2,2.1,5.3,4.9c0,0.1,0,0.3,0,0.4v2.3c0,0-0.8-3-3.1-3c-2.3,0-83.7,0-85.3,0
	c-1.5,0-2.7,1.9-2.7,3.4"/>
<path class="st2" d="M129.4,29.8c1.5,0,2.7,1.1,2.7,2.4v46.4c0,1.3-1.2,2.4-2.7,2.4H43.7c-1.5,0-2.7-1.1-2.7-2.4V32.2
	c0-1.3,1.2-2.4,2.7-2.4L129.4,29.8"/>
</svg>
