<svg id="jsxbin" xmlns="http://www.w3.org/2000/svg" width="173" height="97" viewBox="0 0 173 97">
  <metadata><?xpacket begin="﻿" id="W5M0MpCehiHzreSzNTczkc9d"?>
<x:xmpmeta xmlns:x="adobe:ns:meta/" x:xmptk="Adobe XMP Core 5.6-c138 79.159824, 2016/09/14-01:09:01        ">
   <rdf:RDF xmlns:rdf="http://www.w3.org/1999/02/22-rdf-syntax-ns#">
      <rdf:Description rdf:about=""/>
   </rdf:RDF>
</x:xmpmeta>
                                                                                                    
                                                                                                    
                                                                                                    
                                                                                                    
                                                                                                    
                                                                                                    
                                                                                                    
                                                                                                    
                                                                                                    
                                                                                                    
                                                                                                    
                                                                                                    
                                                                                                    
                                                                                                    
                                                                                                    
                                                                                                    
                                                                                                    
                                                                                                    
                                                                                                    
                                                                                                    
                           
<?xpacket end="w"?></metadata>
<defs>
    <style>
      .cls-1 {
        fill: none;
        stroke: #000;
        stroke-width: 1px;
        opacity: 0.01;
      }

      .cls-2 {
        fill: #363636;
      }

      .cls-2, .cls-3, .cls-6, .cls-7, .cls-8 {
        fill-rule: evenodd;
      }

      .cls-3 {
        fill: #5c5959;
      }

      .cls-4 {
        fill: #6b2130;
      }

      .cls-5 {
        font-size: 10.667px;
        text-anchor: middle;
        font-family: Tahoma;
        font-weight: 700;
      }

      .cls-5, .cls-8 {
        fill: #fff;
      }

      .cls-6 {
        fill: #737272;
      }

      .cls-7 {
        fill: silver;
      }
    </style>
  </defs>
  <rect id="SVG_Border" data-name="SVG Border" class="cls-1" width="173" height="97"/>
  <path class="cls-2" d="M99,15H58V83h56V30c0-.132-4.048-3.075-8-7C102.217,19.243,99.113,15,99,15Z"/>
  <path class="cls-3" d="M98.674,15L114,30.184H98.674V15Z"/>
  <rect class="cls-4" x="48" y="18" width="49" height="14"/>
  <text id="JSXBIN-2" data-name="JSXBIN" class="cls-5" transform="translate(71.991 28.747)">JSXBIN</text>
  <g id="script">
    <path id="Ellipse_1_Dark" data-name="Ellipse 1 Dark" class="cls-6" d="M81.573,76.648a4.22,4.22,0,0,1-.213-5.913c0.032-.032,11.177-11.293,11.145-11.258a4.363,4.363,0,0,0,.1,6.02,4.254,4.254,0,0,0,5.956.107c0.035-.033-11.108,11.227-11.14,11.259A4.116,4.116,0,0,1,81.573,76.648Z"/>
    <path id="Ellipse_1_Medium" data-name="Ellipse 1 Medium" class="cls-7" d="M99.769,58.264a4.22,4.22,0,0,1,.213,5.913c-0.032.032-12.609,12.743-12.577,12.708a5.121,5.121,0,0,0,0-6.6c-0.024-.025-12.571-12.7-12.6-12.728a5.041,5.041,0,0,1-.032-6.563c0.033-.036,8.836-9.055,9.83-8.05Z"/>
    <path id="Ellipse_1_Light" data-name="Ellipse 1 Light" class="cls-8" d="M93.7,37.993a4.22,4.22,0,0,1,.213,5.913c-0.032.032-13.51,13.65-13.478,13.615a4.363,4.363,0,0,0-.1-6.02,4.254,4.254,0,0,0-5.956-.107c-0.035.033,13.44-13.584,13.473-13.616A4.116,4.116,0,0,1,93.7,37.993ZM72.718-14.921a0.007,0.007,0,0,1,0,.01l-0.022.023a0.007,0.007,0,0,0,0-.01,0.007,0.007,0,0,0-.01,0l0.022-.023A0.007,0.007,0,0,1,72.718-14.921Z"/>
  </g>
</svg>
