<svg id="mp3" xmlns="http://www.w3.org/2000/svg" width="173" height="97" viewBox="0 0 173 97">
  <metadata><?xpacket begin="﻿" id="W5M0MpCehiHzreSzNTczkc9d"?>
<x:xmpmeta xmlns:x="adobe:ns:meta/" x:xmptk="Adobe XMP Core 5.6-c138 79.159824, 2016/09/14-01:09:01        ">
   <rdf:RDF xmlns:rdf="http://www.w3.org/1999/02/22-rdf-syntax-ns#">
      <rdf:Description rdf:about=""/>
   </rdf:RDF>
</x:xmpmeta>
                                                                                                    
                                                                                                    
                                                                                                    
                                                                                                    
                                                                                                    
                                                                                                    
                                                                                                    
                                                                                                    
                                                                                                    
                                                                                                    
                                                                                                    
                                                                                                    
                                                                                                    
                                                                                                    
                                                                                                    
                                                                                                    
                                                                                                    
                                                                                                    
                                                                                                    
                                                                                                    
                           
<?xpacket end="w"?></metadata>
<defs>
    <style>
      .cls-1 {
        fill: none;
        stroke: #000;
        stroke-width: 1px;
        opacity: 0;
      }

      .cls-2 {
        fill: #363636;
      }

      .cls-2, .cls-3, .cls-6 {
        fill-rule: evenodd;
      }

      .cls-3 {
        fill: #5c5959;
      }

      .cls-4 {
        fill: #537a8e;
      }

      .cls-5 {
        font-size: 10.667px;
        fill: #fff;
        text-anchor: middle;
        font-family: Tahoma;
        font-weight: 700;
      }

      .cls-6 {
        fill: #9e9e9e;
      }
    </style>
  </defs>
  <rect id="SVG_Border" data-name="SVG Border" class="cls-1" width="173" height="97"/>
  <path class="cls-2" d="M99,15H58V83h56V30c0-.132-4.048-3.075-8-7C102.217,19.243,99.113,15,99,15Z"/>
  <path class="cls-3" d="M98.674,15L114,30.184H98.674V15Z"/>
  <rect class="cls-4" x="50" y="18" width="38" height="14"/>
  <text id="MP3-2" data-name="MP3" class="cls-5" transform="translate(68.991 28.747)">MP3</text>
  <path class="cls-6" d="M84.92,40.226V61.062s-2.38-1.467-7.636,0S72,68.736,74.535,70.868s7.8,1.684,10.08,0,3.054-2.924,3.054-4.9V48.5s4.582,1.453,4.582,6.128c0,5.684-1.442,6.8-1.833,7.354-0.546.777,0.667,1.073,1.527,0.613C93.128,61.962,95,59.8,95,54.934c0-5.18-2.9-8.275-5.5-10.725-1.909-1.8-2.126-3.276-2.138-3.983A1.4,1.4,0,0,0,86.142,39,1.321,1.321,0,0,0,84.92,40.226Z"/>
</svg>
