<svg xmlns="http://www.w3.org/2000/svg" width="19.333" height="18" viewBox="0 0 19.333 18"><g transform="translate(-530.333 -355)"><g fill="#202020"><path d="M539,356h-1v7h-2v-2l-4,3,4,3v-2h2v7h1Z" stroke="none"/><path d="M 538 356 L 538 363 L 536 363 L 536 361 L 532 364 L 536 367 L 536 365 L 538 365 L 538 372 L 539 372 L 539 356 L 538 356 M 537 355 L 538 355 L 539 355 L 540 355 L 540 356 L 540 372 L 540 373 L 539 373 L 538 373 L 537 373 L 537 372 L 537 366 L 537 367 L 537 369 L 535.4000244140625 367.7999877929688 L 531.4000244140625 364.7999877929688 L 530.3333129882812 364 L 531.4000244140625 363.2000122070312 L 535.4000244140625 360.2000122070312 L 537 359 L 537 356 L 537 355 Z" stroke="none" fill="rgba(232,232,232,0.8)"/></g><g transform="translate(548 372) rotate(180)" fill="#202020"><path d="M7,16H6V9H4v2L0,8,4,5V7H6V0H7Z" stroke="none"/><path d="M 7 16 L 7 0 L 6 0 L 6 7 L 4 7 L 4 5 L -4.440892098500626e-16 8 L 4 11 L 4 9 L 6 9 L 6 16 L 7 16 M 8 17 L 7 17 L 6 17 L 5 17 L 5 16 L 5 13 L 3.400000095367432 11.80000019073486 L -0.6000000238418579 8.800000190734863 L -1.666669964790344 8 L -0.6000000238418579 7.199999809265137 L 3.400000095367432 4.199999809265137 L 5 3 L 5 5 L 5 6 L 5 0 L 5 -1 L 6 -1 L 7 -1 L 8 -1 L 8 0 L 8 16 L 8 17 Z" stroke="none" fill="rgba(232,232,232,0.8)"/></g></g></svg>