<svg id="mogrt" xmlns="http://www.w3.org/2000/svg" width="173" height="97" viewBox="0 0 173 97">
  <defs>
    <style>
      .cls-1 {
        fill: none;
        stroke: #000;
        stroke-width: 1px;
        opacity: 0;
      }

      .cls-2 {
        fill: #3d5c67;
      }

      .cls-2, .cls-3, .cls-5 {
        fill-rule: evenodd;
      }

      .cls-3, .cls-4 {
        fill: #1d3741;
      }

      .cls-5 {
        fill: #bee8f8;
      }
    </style>
  </defs>
  <rect id="SVG_Border_copy_3" data-name="SVG Border copy 3" class="cls-1" width="173" height="97"/>
  <path id="Rectangle_14_copy" data-name="Rectangle 14 copy" class="cls-2" d="M99,15H58V83h56V30c0-.132-4.048-3.075-8-7C102.217,19.243,99.112,15,99,15Z"/>
  <path id="Shape_2_copy" data-name="Shape 2 copy" class="cls-3" d="M98.673,15L114,30.184H98.673V15Z"/>
  <rect id="Rectangle_15_copy" data-name="Rectangle 15 copy" class="cls-4" x="41.938" y="16.719" width="52.063" height="16.562"/>
  <path id="MOGRT_copy" data-name="MOGRT copy" class="cls-5" d="M53.353,21.059H50.942L49.1,25.171l-1.846-4.112H44.844v8.33h1.969V23.867l1.516,3.563h1.427l1.516-3.563v5.521h2.081v-8.33Zm9.391,0.987a4.345,4.345,0,0,0-5.919.006,4.505,4.505,0,0,0-1.074,3.175,4.5,4.5,0,0,0,1.074,3.163,4.342,4.342,0,0,0,5.919.014,4.477,4.477,0,0,0,1.08-3.177A4.487,4.487,0,0,0,62.744,22.046Zm-1.225,4.442a2.74,2.74,0,0,1-.414.848,1.56,1.56,0,0,1-.6.5,1.7,1.7,0,0,1-.716.159,1.752,1.752,0,0,1-.7-0.148,1.563,1.563,0,0,1-.61-0.5,2.586,2.586,0,0,1-.414-0.848,5.331,5.331,0,0,1,.008-2.554,2.542,2.542,0,0,1,.417-0.861,1.68,1.68,0,0,1,.6-0.489,1.793,1.793,0,0,1,1.4.011,1.589,1.589,0,0,1,.607.489,2.615,2.615,0,0,1,.411.859A5.437,5.437,0,0,1,61.519,26.488Zm11.706-1.675H69.583v1.561H71.2v1.633q-0.112.011-.263,0.017t-0.263.006a2.8,2.8,0,0,1-2-.694,2.839,2.839,0,0,1-.733-2.154,3.4,3.4,0,0,1,.193-1.2,2.389,2.389,0,0,1,.523-0.85,2.222,2.222,0,0,1,.789-0.515,2.737,2.737,0,0,1,.979-0.168,2.9,2.9,0,0,1,.87.129,3.669,3.669,0,0,1,.724.308,4.776,4.776,0,0,1,.551.366L73,23.587h0.19V21.635a9.182,9.182,0,0,0-1.354-.54,6.006,6.006,0,0,0-1.7-.2,4.045,4.045,0,0,0-4.358,4.319,3.98,3.98,0,0,0,4.3,4.347,7.3,7.3,0,0,0,1.726-.213,10.3,10.3,0,0,0,1.424-.436v-4.1Zm7.639,1.035a3.033,3.033,0,0,0,1.152-.948,2.588,2.588,0,0,0,.431-1.552,2.146,2.146,0,0,0-.263-1.116,2.181,2.181,0,0,0-.71-0.724,2.574,2.574,0,0,0-.951-0.361,7.368,7.368,0,0,0-1.208-.087H75.963v8.33h2.081V26.334h0.75l2.322,3.054h2.551ZM80.2,24.18a0.979,0.979,0,0,1-.3.375,1.1,1.1,0,0,1-.517.227,4.4,4.4,0,0,1-.741.053h-0.6V22.592h0.7q0.358,0,.6.022a1.445,1.445,0,0,1,.436.106,0.793,0.793,0,0,1,.4.35,1.136,1.136,0,0,1,.12.54A1.409,1.409,0,0,1,80.2,24.18Zm8.843,5.208V22.648h2.462V21.059H84.49v1.589h2.462v6.741h2.092Z"/>
  <path id="Прямоугольник_1" data-name="Прямоугольник 1" class="cls-5" d="M74,45H98v5H74V45Zm0,10H92v5H74V55Zm0,10H98v5H74V65Z"/>
</svg>
