<svg id="scr" xmlns="http://www.w3.org/2000/svg" width="12" height="13" viewBox="0 0 12 13">
  <metadata><?xpacket begin="﻿" id="W5M0MpCehiHzreSzNTczkc9d"?>
<x:xmpmeta xmlns:x="adobe:ns:meta/" x:xmptk="Adobe XMP Core 5.6-c140 79.160451, 2017/05/06-01:08:21        ">
   <rdf:RDF xmlns:rdf="http://www.w3.org/1999/02/22-rdf-syntax-ns#">
      <rdf:Description rdf:about=""/>
   </rdf:RDF>
</x:xmpmeta>
                                                                                                    
                                                                                                    
                                                                                                    
                                                                                                    
                                                                                                    
                                                                                                    
                                                                                                    
                                                                                                    
                                                                                                    
                                                                                                    
                                                                                                    
                                                                                                    
                                                                                                    
                                                                                                    
                                                                                                    
                                                                                                    
                                                                                                    
                                                                                                    
                                                                                                    
                                                                                                    
                           
<?xpacket end="w"?></metadata>
<defs>
    <style>
      .cls-1 {
        fill: #9f9f9f;
        fill-rule: evenodd;
      }
    </style>
  </defs>
  <path class="cls-1" d="M426,63h8a1,1,0,0,1,1,1V75a1,1,0,0,1-1,1h-8a1,1,0,0,1-1-1V64A1,1,0,0,1,426,63Zm-1,0h7a1,1,0,0,1,1,1v1h-9V64A1,1,0,0,1,425,63Zm4,11h7v1a1,1,0,0,1-1,1h-6a1,1,0,0,1-1-1V74h1Zm-2-7h6v1h-6V67Zm0,2h6v1h-6V69Zm0,2h6v1h-6V71Z" transform="translate(-424 -63)"/>
</svg>
